<svg width="24" height="24" viewBox="0 0 24 24" fill="none" xmlns="http://www.w3.org/2000/svg">
<g clip-path="url(#clip0)">
<path d="M16.6842 3.40884C14.7668 3.40884 12.8495 5.56582 11.6912 7.88258C10.4129 5.32616 8.45568 3.40884 6.69814 3.40884C3.70234 3.40884 0.187256 8.92113 0.187256 13.5546C0.187256 16.9099 2.42413 20.2653 6.6582 20.2653C8.89507 20.2653 10.5727 19.3465 11.6512 17.9485C13.0493 19.6261 15.1263 20.2653 16.6842 20.2653C20.9182 20.2653 23.1551 16.87 23.1551 13.5546C23.1951 8.92113 19.68 3.40884 16.6842 3.40884ZM6.69814 19.4664C3.98194 19.4664 1.02608 17.6289 1.02608 13.5546C1.02608 9.36052 4.14172 4.20773 6.69814 4.20773C8.33585 4.20773 10.2132 6.32476 11.3317 8.96107C11.3317 8.96107 11.3317 8.96107 11.3317 9.00102C11.9708 10.4789 12.3702 12.0767 12.3702 13.5946C12.3702 17.6289 9.41434 19.4664 6.69814 19.4664ZM16.6842 19.4664C15.2462 19.4664 13.3289 18.8672 12.1305 17.2694C12.8096 16.151 13.1291 14.8329 13.1291 13.5546C13.1291 11.9968 12.7297 10.3192 12.0906 8.8013C13.3289 6.0851 15.1663 4.16778 16.6842 4.16778C19.2406 4.16778 22.3562 9.32057 22.3562 13.5147C22.3962 17.6289 19.4403 19.4664 16.6842 19.4664Z" fill="white"/>
<path d="M3.18298 9.99878C2.98326 9.91889 2.74359 10.0387 2.66371 10.2384C2.62376 10.3583 1.50533 13.2742 2.42404 15.3113C2.50393 15.4312 2.62376 15.5111 2.78354 15.5111C2.82348 15.5111 2.90337 15.5111 2.94331 15.4711C3.14303 15.3912 3.22292 15.1516 3.14303 14.9518C2.34415 13.2343 3.3827 10.558 3.42264 10.5181C3.50253 10.3183 3.3827 10.0787 3.18298 9.99878Z" fill="white"/>
<path d="M16.125 5.64489C15.9652 5.44516 15.7256 5.44517 15.5658 5.60494C15.4859 5.68483 13.249 7.9217 13.289 10.1586C13.289 10.3583 13.4887 10.558 13.6884 10.558C13.9281 10.558 14.0879 10.3583 14.0879 10.1586C14.0479 8.28119 16.0851 6.2041 16.125 6.2041C16.2848 6.04433 16.2848 5.80466 16.125 5.64489Z" fill="white"/>
</g>
<defs>
<clipPath id="clip0">
<rect width="22.9682" height="22.9682" fill="white" transform="translate(0.187256 0.352142)"/>
</clipPath>
</defs>
</svg>
