<svg width="17" height="22" viewBox="0 0 17 22" fill="none" xmlns="http://www.w3.org/2000/svg">
<path d="M16.9539 6.52477C16.9487 6.35596 16.8075 6.22321 16.6389 6.22841C16.4701 6.23358 16.3374 6.37457 16.3425 6.54338C16.3839 7.8944 16.0012 9.23617 15.2357 10.4236C14.2815 11.9037 12.8082 12.9682 11.1942 13.3443C9.76079 13.6782 8.56698 14.4894 7.83289 15.6282C7.79211 15.6915 7.72409 15.7107 7.68724 15.7165C7.61093 15.7286 7.52949 15.7098 7.45785 15.6636L4.28981 13.6213C4.15487 13.5343 4.0988 13.3712 4.16716 13.265C4.90141 12.1262 5.14731 10.7041 4.85979 9.26074C4.53588 7.63535 4.89729 5.85407 5.85168 4.37391C6.76665 2.9544 8.11773 1.93822 9.65593 1.51245C11.1814 1.0902 12.7088 1.30064 13.9563 2.10495C15.034 2.79966 15.8141 3.90117 16.1529 5.20633C16.1955 5.36984 16.3624 5.46795 16.5258 5.42552C16.6892 5.38289 16.7873 5.21602 16.7449 5.05255C16.3674 3.59843 15.4948 2.36906 14.2878 1.59088C12.8915 0.690848 11.1887 0.453617 9.49291 0.922938C7.80981 1.38872 6.33406 2.49663 5.33756 4.04257C4.2981 5.65497 3.90532 7.60037 4.26 9.38016C4.51637 10.6671 4.3009 11.9289 3.65305 12.9337C3.40074 13.325 3.53773 13.8642 3.95835 14.1352L4.27103 14.3368L2.93413 16.4106C2.50802 16.2054 2.0291 16.1522 1.56052 16.2619C1.00556 16.3916 0.538586 16.7331 0.245659 17.2231C0.158974 17.3682 0.206274 17.5559 0.351202 17.6424C0.496088 17.7291 0.684014 17.6818 0.770659 17.5369C0.977811 17.1904 1.30764 16.949 1.69967 16.8574C2.0919 16.7657 2.49418 16.8353 2.83299 17.0536C2.83739 17.0564 2.84154 17.0596 2.84594 17.0624L2.86187 17.0734C2.92998 17.1196 3.01386 17.1365 3.09457 17.1201C3.17531 17.1036 3.24599 17.0553 3.29071 16.9861L4.78497 14.6681L6.2996 15.6446L4.80074 17.9698C4.75371 18.0426 4.73994 18.1319 4.76248 18.2153C4.78515 18.299 4.84221 18.3691 4.91931 18.4082C4.96606 18.432 5.0111 18.4576 5.05312 18.4848C5.40011 18.7085 5.63129 19.0555 5.70448 19.4618C5.77751 19.8681 5.68065 20.2746 5.4319 20.6071C4.99458 21.1917 4.18307 21.3655 3.54436 21.011C3.21549 20.8285 2.97092 20.5325 2.85573 20.1773C2.76545 19.8991 2.48902 19.721 2.19839 19.7534C1.82738 19.7953 1.45679 19.6947 1.15483 19.4706C0.899574 19.2811 0.716477 19.0176 0.625374 18.7086C0.577641 18.5467 0.40746 18.4541 0.245486 18.5018C0.0834706 18.5497 -0.00908008 18.7197 0.0386538 18.8817C0.167884 19.319 0.427691 19.6925 0.790304 19.9617C1.21697 20.2784 1.74128 20.4203 2.26666 20.3613C2.27081 20.3609 2.27276 20.3623 2.27396 20.3659C2.43704 20.8689 2.78278 21.2878 3.24754 21.5457C3.40863 21.6352 3.57742 21.7008 3.74959 21.7437C4.54475 21.9418 5.41225 21.6542 5.92162 20.9734C6.27306 20.5038 6.40966 19.9285 6.30639 19.3537C6.21153 18.8264 5.91433 18.3534 5.48377 18.0388L6.81371 15.9759L7.12639 16.1775C7.21748 16.2361 7.31594 16.2786 7.41745 16.3039C7.53721 16.3337 7.6615 16.3396 7.78329 16.3203C8.02097 16.2826 8.22114 16.1544 8.34687 15.9593C8.99452 14.9547 10.055 14.2375 11.3328 13.9397C13.1004 13.5281 14.7102 12.3671 15.7497 10.7547C16.5826 9.46289 16.9991 8.00007 16.9539 6.52477Z" fill="white"/>
</svg>
